<svg width="40" height="40" viewBox="0 0 40 40" fill="none" xmlns="http://www.w3.org/2000/svg">
<path fill-rule="evenodd" clip-rule="evenodd" d="M5 27.7835V15.0952H35V27.8852C35 33.1169 31.7069 36.3335 26.438 36.3335H13.5456C8.32602 36.3335 5 33.0502 5 27.7835ZM13.2656 23.6835C12.5082 23.7185 11.8825 23.1169 11.8496 22.3519C11.8496 21.5852 12.4424 20.9519 13.1998 20.9169C13.9407 20.9169 14.5499 21.5019 14.5664 22.2502C14.5993 23.0185 14.0066 23.6519 13.2656 23.6835ZM20.0329 23.6835C19.2755 23.7185 18.6498 23.1169 18.6169 22.3519C18.6169 21.5852 19.2097 20.9519 19.9671 20.9169C20.708 20.9169 21.3172 21.5019 21.3337 22.2502C21.3666 23.0185 20.7739 23.6519 20.0329 23.6835ZM26.7508 29.8169C25.9934 29.8002 25.3842 29.1669 25.3842 28.4002C25.3677 27.6335 25.9769 27.0019 26.7344 26.9852H26.7508C27.5247 26.9852 28.1504 27.6185 28.1504 28.4002C28.1504 29.1835 27.5247 29.8169 26.7508 29.8169ZM18.6169 28.4002C18.6498 29.1669 19.2755 29.7685 20.0329 29.7335C20.7739 29.7019 21.3666 29.0685 21.3337 28.3019C21.3172 27.5519 20.708 26.9669 19.9671 26.9669C19.2097 27.0019 18.6169 27.6335 18.6169 28.4002ZM11.8332 28.4002C11.8661 29.1669 12.4918 29.7685 13.2492 29.7335C13.9901 29.7019 14.5829 29.0685 14.5499 28.3019C14.5335 27.5519 13.9243 26.9669 13.1833 26.9669C12.4259 27.0019 11.8332 27.6335 11.8332 28.4002ZM25.4007 22.3352C25.4007 21.5685 25.9934 20.9519 26.7508 20.9352C27.4918 20.9352 28.0845 21.5335 28.1175 22.2685C28.1339 23.0352 27.5412 23.6685 26.8002 23.6835C26.0428 23.7002 25.4171 23.1169 25.4007 22.3519V22.3352Z" fill="#4D77FF"/>
<path opacity="0.4" d="M5.00562 15.0951C5.02702 14.1167 5.10935 12.1751 5.26412 11.5501C6.05446 8.03506 8.73833 5.80173 12.5748 5.4834H27.4266C31.2301 5.8184 33.9469 8.06673 34.7372 11.5501C34.8904 12.1584 34.9727 14.1151 34.9941 15.0951H5.00562Z" fill="#4D77FF"/>
<path d="M13.8414 10.65C14.5659 10.65 15.1093 10.1017 15.1093 9.36667V4.285C15.1093 3.55 14.5659 3 13.8414 3C13.117 3 12.5736 3.55 12.5736 4.285V9.36667C12.5736 10.1017 13.117 10.65 13.8414 10.65" fill="#4D77FF"/>
<path d="M26.1582 10.65C26.8662 10.65 27.4261 10.1017 27.4261 9.36667V4.285C27.4261 3.55 26.8662 3 26.1582 3C25.4337 3 24.8904 3.55 24.8904 4.285V9.36667C24.8904 10.1017 25.4337 10.65 26.1582 10.65" fill="#4D77FF"/>
</svg>
