<svg width="40" height="40" viewBox="0 0 40 40" fill="none" xmlns="http://www.w3.org/2000/svg">
<path opacity="0.4" d="M21.6271 5.18919L25.3379 12.6463C25.6113 13.1866 26.1331 13.5618 26.7349 13.6452L35.07 14.8591C35.5568 14.9275 35.9986 15.1843 36.297 15.5761C36.592 15.963 36.7187 16.4533 36.647 16.9352C36.5887 17.3354 36.4003 17.7056 36.1119 17.989L30.0723 23.8437C29.6305 24.2522 29.4305 24.8575 29.5372 25.4495L31.0242 33.6803C31.1825 34.6742 30.5241 35.6113 29.5372 35.7998C29.1304 35.8648 28.7137 35.7964 28.3469 35.6097L20.912 31.736C20.3602 31.4576 19.7084 31.4576 19.1566 31.736L11.7217 35.6097C10.8082 36.0949 9.67625 35.7647 9.16781 34.8643C8.97943 34.5058 8.91275 34.0972 8.97443 33.6987L10.4614 25.4662C10.5681 24.8759 10.3664 24.2672 9.9263 23.8587L3.88667 18.0074C3.16819 17.3137 3.14652 16.1714 3.83833 15.4527C3.85333 15.4377 3.87 15.4211 3.88667 15.4044C4.1734 15.1126 4.55015 14.9275 4.9569 14.8791L13.292 13.6635C13.8922 13.5785 14.4139 13.2066 14.689 12.663L18.2664 5.18919C18.5848 4.54887 19.245 4.15033 19.9618 4.16701H20.1852C20.807 4.24205 21.3488 4.62724 21.6271 5.18919" fill="#4D77FF"/>
<path d="M19.9867 31.5284C19.6638 31.5384 19.3493 31.6251 19.0664 31.7802L11.6678 35.6451C10.7626 36.0771 9.67925 35.7418 9.1717 34.8761C8.98366 34.5225 8.91543 34.1172 8.97867 33.7202L10.4564 25.5051C10.5562 24.9079 10.3565 24.3008 9.92221 23.8804L3.87988 18.0306C3.16265 17.3284 3.14934 16.1758 3.85159 15.4569C3.86157 15.4468 3.86989 15.4385 3.87988 15.4302C4.1661 15.1466 4.53553 14.9598 4.93325 14.9014L13.2754 13.6737C13.8794 13.597 14.4036 13.22 14.6699 12.6729L18.2959 5.10503C18.6404 4.49453 19.3011 4.1309 20 4.16927C19.9867 4.66467 19.9867 31.1914 19.9867 31.5284" fill="#4D77FF"/>
</svg>
